<svg id="Capa_1" enable-background="new 0 0 512 512" height="512" viewBox="0 0 512 512" width="512" xmlns="http://www.w3.org/2000/svg"><g><path d="m455.8 464.681h-399.6l-20-31.063h439.6z" fill="#9ec8fc"/><path d="m488.97 433.622c4.29 0 8.17-1.74 10.98-4.55s4.55-6.69 4.55-10.98c0-8.58-6.96-15.54-15.53-15.54h-465.94c-4.29 0-8.17 1.74-10.98 4.55-2.81 2.82-4.55 6.7-4.55 10.99 0 8.57 6.96 15.53 15.53 15.53z" fill="#bed9fd"/><path d="m73.03 433.622h-50c-8.57 0-15.53-6.96-15.53-15.53 0-4.29 1.74-8.17 4.55-10.99 2.81-2.81 6.69-4.55 10.98-4.55h50c-4.29 0-8.17 1.74-10.98 4.55-2.81 2.82-4.55 6.7-4.55 10.99 0 8.57 6.96 15.53 15.53 15.53z" fill="#9ec8fc"/><path d="m85.158 185.12h326.154v186.476h-326.154z" fill="#dc8758"/><path d="m85.16 185.122h30v186.47h-30z" fill="#c86d36"/><path d="m321.31 154.062h27.95c7.98-11.51 21.1-18.38 35.1-18.38h32.08c14.32 0 25.93 11.61 25.93 25.94v240.93.11h-372.74v-15.53c0-8.58 6.95-15.54 15.53-15.54h326.15v-186.47h-326.15c-4.29 0-8.17-1.74-10.98-4.55s-4.55-6.69-4.55-10.98c0-8.58 6.95-15.53 15.53-15.53h203.46z" fill="#ffeee6"/><path d="m85.16 371.592h30c-8.58 0-15.53 6.96-15.53 15.54v15.53h-30v-15.53c0-8.58 6.95-15.54 15.53-15.54z" fill="#fedba6"/><path d="m99.63 169.592c0 4.29 1.74 8.17 4.55 10.98s6.69 4.55 10.98 4.55h-30c-4.29 0-8.17-1.74-10.98-4.55s-4.55-6.69-4.55-10.98c0-8.58 6.95-15.53 15.53-15.53h30c-8.58 0-15.53 6.95-15.53 15.53z" fill="#fedba6"/><path d="m150.388 371.598h-65.23v-17.469c0-7.507 6.086-13.593 13.593-13.593h38.044c7.507 0 13.593 6.086 13.593 13.593z" fill="#fcd1e8"/><path d="m115.16 340.532v31.06h-30v-17.46c0-7.51 6.08-13.6 13.59-13.6z" fill="#ff9fb6"/><path d="m215.619 371.598h-65.231v-17.469c0-7.507 6.086-13.593 13.593-13.593h38.044c7.507 0 13.593 6.086 13.593 13.593v17.469z" fill="#ff9fb6"/><path d="m280.85 371.598h-65.231v-17.469c0-7.507 6.086-13.593 13.593-13.593h38.044c7.507 0 13.593 6.086 13.593 13.593v17.469z" fill="#fcd1e8"/><path d="m346.081 371.598h-65.231v-17.469c0-7.507 6.086-13.593 13.593-13.593h38.044c7.507 0 13.593 6.086 13.593 13.593v17.469z" fill="#ff9fb6"/><path d="m411.311 371.598h-65.231v-17.469c0-7.507 6.086-13.593 13.593-13.593h38.044c7.507 0 13.593 6.086 13.593 13.593v17.469z" fill="#fcd1e8"/><path d="m85.158 248.245h326.154v30.466h-326.154z" fill="#ffcfda"/><path d="m85.16 248.242h30v30.47h-30z" fill="#ff9fb6"/><path d="m201.781 115.683h35.312v11.563c0 14.808-12.004 26.812-26.812 26.812h-35.312v-11.563c0-14.808 12.004-26.812 26.812-26.812z" fill="#97da7b"/><path d="m132.501 115.683h-35.312v11.563c0 14.808 12.004 26.812 26.812 26.812h35.312v-11.563c0-14.808-12.004-26.812-26.812-26.812z" fill="#97da7b"/><circle cx="167.141" cy="125.557" fill="#ff9fb6" r="28.501"/><path d="m177.14 152.252c-3.11 1.17-6.48 1.81-10 1.81-15.74 0-28.5-12.76-28.5-28.51 0-15.74 12.76-28.5 28.5-28.5 3.52 0 6.89.64 10 1.81-10.81 4.04-18.5 14.47-18.5 26.69 0 12.23 7.69 22.66 18.5 26.7z" fill="#f77ca9"/><g><circle cx="123.725" cy="214.734" r="7.505"/><circle cx="161.12" cy="220.078" r="7.505"/><circle cx="201.901" cy="212.572" r="7.505"/><circle cx="232.964" cy="222.239" r="7.505"/><circle cx="267.964" cy="208.677" r="7.505"/><circle cx="304.964" cy="222.239" r="7.505"/><circle cx="341.161" cy="208.677" r="7.505"/><circle cx="376.582" cy="220.078" r="7.505"/><circle cx="123.725" cy="309.67" r="7.505"/><circle cx="161.12" cy="315.014" r="7.505"/><circle cx="201.901" cy="307.509" r="7.505"/><circle cx="232.964" cy="317.175" r="7.505"/><circle cx="267.964" cy="303.614" r="7.505"/><circle cx="304.964" cy="317.175" r="7.505"/><circle cx="341.161" cy="303.614" r="7.505"/><circle cx="376.582" cy="315.014" r="7.505"/><path d="m488.97 395.052h-39.1v-233.43c0-18.439-14.996-33.44-33.43-33.44h-32.08c-15.104 0-29.339 6.803-38.829 18.38h-24.221c-4.143 0-7.5 3.358-7.5 7.5s3.357 7.5 7.5 7.5h27.95c2.459 0 4.762-1.206 6.163-3.227 6.579-9.488 17.396-15.153 28.938-15.153h32.08c10.162 0 18.43 8.272 18.43 18.44v233.43h-357.741v-7.92c0-4.411 3.568-8.002 7.966-8.037.021 0 .041.003.061.003h326.154c4.143 0 7.5-3.358 7.5-7.5v-.002-186.476c0-4.142-3.357-7.5-7.5-7.5h-326.154c-10.092 0-10.089-16.059.003-16.059h203.46c4.143 0 7.5-3.358 7.5-7.5s-3.357-7.5-7.5-7.5h-50.001c3.764-5.507 5.97-12.16 5.97-19.32v-11.56c0-4.142-3.357-7.5-7.5-7.5 0 0-37.339.06-38.345.148-4.962-9.066-13.711-15.772-24.104-17.983v-23.178c0-3.543 2.135-6.661 5.439-7.942l12.18-4.723c11.074-3.654 6.74-17.987-5.424-13.985l-12.18 4.723c-8.981 3.483-15.016 12.294-15.016 21.927v23.179c-10.393 2.212-19.142 8.918-24.103 17.984-1.006-.089-38.347-.149-38.347-.149-4.143 0-7.5 3.358-7.5 7.5v11.56c0 7.16 2.206 13.813 5.97 19.32h-10.499c-26.046 0-30.63 36.83-7.503 44.788v174.004c-9.025 3.121-15.527 11.701-15.527 21.778v7.92h-39.1c-14.04 1.321-21.717 9.001-23.03 23.04 0 12.699 10.331 23.03 23.03 23.03h9.079l17.785 27.621c1.381 2.144 3.756 3.439 6.306 3.439h399.6c2.55 0 4.925-1.295 6.306-3.439l17.785-27.621h9.079c6.149 0 11.933-2.396 16.284-6.747s6.746-10.134 6.746-16.283c0-12.704-10.331-23.04-23.03-23.04zm-259.38-271.87c.41 14-6.24 23.38-19.31 23.38h-13.928c5.04-7.404 7.274-15.197 6.704-23.38zm-62.449-18.627c11.58 0 21.002 9.421 21.002 21.001s-9.422 21.001-21.002 21.001-21.001-9.421-21.001-21.001 9.421-21.001 21.001-21.001zm-62.451 18.627h26.536c-.571 8.183 1.664 15.976 6.703 23.38h-13.929c-16.333-.714-19.667-13.047-19.31-23.38zm53.199 230.947c0-3.36 2.733-6.093 6.093-6.093h38.044c3.36 0 6.094 2.733 6.094 6.093v9.962h-50.23v-9.962zm65.23 0c0-3.36 2.733-6.093 6.094-6.093h38.044c3.359 0 6.093 2.733 6.093 6.093v9.962h-50.23v-9.962zm65.231 0c0-3.36 2.733-6.093 6.094-6.093h38.044c3.359 0 6.093 2.733 6.093 6.093v9.962h-50.23v-9.962zm65.23 0c0-3.36 2.733-6.093 6.094-6.093h38.044c3.347 0 6.071 2.713 6.092 6.055v10.001h-50.23zm50.23-161.507v48.123h-311.153v-48.123zm-311.153 93.589h52.123c4.143 0 7.5-3.358 7.5-7.5s-3.357-7.5-7.5-7.5h-52.123v-15.467h311.153v15.467h-226.35c-4.143 0-7.5 3.358-7.5 7.5s3.357 7.5 7.5 7.5h226.35v47.73c-1.93-.583-3.974-.905-6.092-.905h-38.044c-5.178 0-9.918 1.883-13.594 4.99-3.675-3.107-8.415-4.99-13.593-4.99h-38.044c-5.178 0-9.918 1.883-13.594 4.99-3.675-3.107-8.415-4.99-13.593-4.99h-38.044c-5.178 0-9.919 1.883-13.594 4.99-3.675-3.107-8.416-4.99-13.594-4.99h-38.044c-5.178 0-9.918 1.883-13.593 4.99-3.675-3.107-8.416-4.99-13.594-4.99h-38.042c-2.119 0-4.163.322-6.094.906zm6.094 61.825h38.044c3.36 0 6.094 2.733 6.094 6.093v9.962h-50.232v-9.962c0-3.359 2.734-6.093 6.094-6.093zm390.219 78.086h-96.04c-4.143 0-7.5 3.358-7.5 7.5s3.357 7.5 7.5 7.5h69.12l-10.341 16.06h-391.418l-10.341-16.06h310.29c4.143 0 7.5-3.358 7.5-7.5s-3.357-7.5-7.5-7.5h-337.21c-10.381 0-10.384-16.07 0-16.07h465.94c10.363 0 11.697 16.07 0 16.07z"/></g></g></svg>